<mxfile host="app.diagrams.net" modified="2021-11-28T08:43:51.514Z" agent="5.0 (Windows NT 10.0; Win64; x64) AppleWebKit/537.36 (KHTML, like Gecko) Chrome/96.0.4664.45 Safari/537.36" etag="w-EGF4P9lwUoTDpDfAJo" version="15.8.6" type="github">
  <diagram id="5sF5ZyrV6DTs_JzKhUMP" name="第1頁">
    <mxGraphModel dx="1422" dy="762" grid="1" gridSize="10" guides="1" tooltips="1" connect="1" arrows="1" fold="1" page="1" pageScale="1" pageWidth="827" pageHeight="1169" math="0" shadow="0">
      <root>
        <mxCell id="0" />
        <mxCell id="1" parent="0" />
        <mxCell id="dWe2MXaykKoBHlvBB-Hw-3" value="" style="edgeStyle=orthogonalEdgeStyle;rounded=0;orthogonalLoop=1;jettySize=auto;html=1;" edge="1" parent="1" source="dWe2MXaykKoBHlvBB-Hw-1" target="dWe2MXaykKoBHlvBB-Hw-2">
          <mxGeometry relative="1" as="geometry" />
        </mxCell>
        <mxCell id="dWe2MXaykKoBHlvBB-Hw-1" value="&lt;font style=&quot;font-size: 14px&quot;&gt;候選物品庫&lt;/font&gt;" style="shape=cylinder3;whiteSpace=wrap;html=1;boundedLbl=1;backgroundOutline=1;size=15;fillColor=#f5f5f5;fontColor=#333333;strokeColor=#666666;" vertex="1" parent="1">
          <mxGeometry x="110" y="177" width="100" height="100" as="geometry" />
        </mxCell>
        <mxCell id="dWe2MXaykKoBHlvBB-Hw-5" value="" style="edgeStyle=orthogonalEdgeStyle;rounded=0;orthogonalLoop=1;jettySize=auto;html=1;" edge="1" parent="1" source="dWe2MXaykKoBHlvBB-Hw-2" target="dWe2MXaykKoBHlvBB-Hw-4">
          <mxGeometry relative="1" as="geometry" />
        </mxCell>
        <mxCell id="dWe2MXaykKoBHlvBB-Hw-2" value="&lt;font style=&quot;font-size: 14px&quot;&gt;推薦模型&lt;br&gt;F(U, I, C)&lt;/font&gt;" style="whiteSpace=wrap;html=1;fillColor=#dae8fc;strokeColor=#6c8ebf;" vertex="1" parent="1">
          <mxGeometry x="290" y="197" width="120" height="60" as="geometry" />
        </mxCell>
        <mxCell id="dWe2MXaykKoBHlvBB-Hw-4" value="&lt;font style=&quot;font-size: 14px&quot;&gt;推薦物品清單&lt;/font&gt;" style="whiteSpace=wrap;html=1;fillColor=#ffe6cc;strokeColor=#d79b00;" vertex="1" parent="1">
          <mxGeometry x="490" y="177" width="70" height="100" as="geometry" />
        </mxCell>
        <mxCell id="dWe2MXaykKoBHlvBB-Hw-8" value="" style="edgeStyle=orthogonalEdgeStyle;rounded=0;orthogonalLoop=1;jettySize=auto;html=1;" edge="1" parent="1" source="dWe2MXaykKoBHlvBB-Hw-6" target="dWe2MXaykKoBHlvBB-Hw-2">
          <mxGeometry relative="1" as="geometry" />
        </mxCell>
        <mxCell id="dWe2MXaykKoBHlvBB-Hw-6" value="&lt;font style=&quot;font-size: 14px&quot;&gt;物品資訊&lt;/font&gt;" style="whiteSpace=wrap;html=1;fillColor=#d5e8d4;strokeColor=#82b366;" vertex="1" parent="1">
          <mxGeometry x="290" y="80" width="120" height="60" as="geometry" />
        </mxCell>
        <mxCell id="dWe2MXaykKoBHlvBB-Hw-9" value="&lt;font style=&quot;font-size: 14px&quot;&gt;場景資訊&lt;/font&gt;" style="whiteSpace=wrap;html=1;fillColor=#d5e8d4;strokeColor=#82b366;" vertex="1" parent="1">
          <mxGeometry x="410" y="80" width="120" height="60" as="geometry" />
        </mxCell>
        <mxCell id="dWe2MXaykKoBHlvBB-Hw-11" value="&lt;font style=&quot;font-size: 14px&quot;&gt;使用者資訊&lt;/font&gt;" style="whiteSpace=wrap;html=1;fillColor=#d5e8d4;strokeColor=#82b366;" vertex="1" parent="1">
          <mxGeometry x="170" y="80" width="120" height="60" as="geometry" />
        </mxCell>
        <mxCell id="dWe2MXaykKoBHlvBB-Hw-13" value="&lt;font style=&quot;font-size: 24px&quot;&gt;推薦系統邏輯架構&lt;/font&gt;" style="text;html=1;strokeColor=none;fillColor=none;align=center;verticalAlign=middle;whiteSpace=wrap;rounded=0;" vertex="1" parent="1">
          <mxGeometry x="245" y="30" width="210" height="30" as="geometry" />
        </mxCell>
      </root>
    </mxGraphModel>
  </diagram>
</mxfile>
